<svg width="202" height="196" viewBox="0 0 202 196" fill="none" xmlns="http://www.w3.org/2000/svg">
<path d="M46.5719 76.3958C45.5016 78.6078 44.7947 79.9114 43.2084 85.6816M46.5719 76.3958C47.6485 75.9183 49.3274 75.3804 51.6172 74.8681M46.5719 76.3958C56.9614 70.3789 79.736 58.4795 87.7187 59.0177C97.6971 59.6904 98.3698 73.0065 96.8001 73.9373M50.6081 144.563C47.7678 143.068 42.3115 137.611 43.2084 127.745M50.6081 144.563C53.4858 146.356 61.1247 150.348 68.6589 151.962C76.1931 153.577 119.615 141.349 140.385 135.033M50.6081 144.563C54.9623 152.012 58.0968 156.602 60.1507 159.25M43.2084 127.745C40.9919 125.937 37.6192 120.3 38.0351 110.367M43.2084 127.745C45.675 130.025 53.0747 134.674 62.9409 135.033C72.8072 135.391 115.828 126.437 136.106 121.915M136.938 78.1164C130.688 77.638 119.507 76.5586 100.836 74.3777C99.465 74.2176 98.1196 74.071 96.8001 73.9373M136.938 78.1164C141.227 78.4446 143.193 78.4899 143.665 78.4138C143.22 79.8443 142.78 81.5021 142.372 83.3469M136.938 78.1164C136.211 81.4443 135.521 85.6238 135.04 90.2982M148.412 145.908C150.113 144.47 151.638 143.075 152.97 141.76C152.426 141.102 151.903 140.435 151.401 139.758M148.412 145.908C131.219 160.443 96.1606 179.254 62.9409 162.277C62.522 162.029 61.6086 161.129 60.1507 159.25M148.412 145.908C146.629 144.339 145.053 142.56 143.665 140.612M135.04 90.2982C108.167 86.3609 52.1777 79.9254 43.2084 85.6816M135.04 90.2982C134.337 97.1249 134.077 105.007 134.791 112.834M43.2084 85.6816C42.3021 88.9785 41.1087 93.7335 39.3965 100.949C38.5692 104.436 38.1521 107.572 38.0351 110.367M134.791 112.834C108.177 108.274 51.5659 101.398 38.0351 110.367M134.791 112.834C135.07 115.891 135.498 118.941 136.106 121.915M136.106 121.915C137.054 126.553 138.44 131.01 140.385 135.033M140.385 135.033C141.339 137.007 142.428 138.876 143.665 140.612M143.665 140.612C125.66 152.131 83.7502 171.986 60.1507 159.25M141.629 87.1589C150.903 82.1137 169.851 74.3516 175.394 76.378C178.309 77.4437 195.126 92.989 178.533 110.367C165.258 124.269 153.912 134.323 149.897 137.611M141.629 87.1589C139.304 100.823 139.248 121.499 149.897 137.611M141.629 87.1589C141.858 85.817 142.108 84.5427 142.372 83.3469M149.897 137.611C150.377 138.336 150.878 139.052 151.401 139.758M151.401 139.758L180.663 111.488C193.169 97.1196 187.227 73.817 175.394 73.817C163.561 73.817 151.742 78.0551 142.372 83.3469M51.6172 74.8681C60.5865 70.4816 79.3772 61.5739 82.7856 61.0358C87.046 60.3631 97.3607 62.3072 95.2305 73.7832M51.6172 74.8681C59.2548 73.1593 73.6883 71.7352 95.2305 73.7832M95.2305 73.7832C95.7496 73.8325 96.2728 73.8839 96.8001 73.9373" stroke="#FAF5ED" stroke-width="2"/>
<g filter="url(#filter0_f)">
<circle cx="63" cy="143" r="10" fill="#FAF5ED"/>
</g>
<g filter="url(#filter1_f)">
<circle cx="50" cy="110" r="20" fill="#FAF5ED"/>
</g>
<g filter="url(#filter2_f)">
<circle cx="75.5" cy="125.5" r="12.5" fill="#FAF5ED"/>
</g>
<defs>
<filter id="filter0_f" x="33" y="113" width="60" height="60" filterUnits="userSpaceOnUse" color-interpolation-filters="sRGB">
<feFlood flood-opacity="0" result="BackgroundImageFix"/>
<feBlend mode="normal" in="SourceGraphic" in2="BackgroundImageFix" result="shape"/>
<feGaussianBlur stdDeviation="10" result="effect1_foregroundBlur"/>
</filter>
<filter id="filter1_f" x="0" y="60" width="100" height="100" filterUnits="userSpaceOnUse" color-interpolation-filters="sRGB">
<feFlood flood-opacity="0" result="BackgroundImageFix"/>
<feBlend mode="normal" in="SourceGraphic" in2="BackgroundImageFix" result="shape"/>
<feGaussianBlur stdDeviation="15" result="effect1_foregroundBlur"/>
</filter>
<filter id="filter2_f" x="38" y="88" width="75" height="75" filterUnits="userSpaceOnUse" color-interpolation-filters="sRGB">
<feFlood flood-opacity="0" result="BackgroundImageFix"/>
<feBlend mode="normal" in="SourceGraphic" in2="BackgroundImageFix" result="shape"/>
<feGaussianBlur stdDeviation="12.5" result="effect1_foregroundBlur"/>
</filter>
</defs>
</svg>
