<svg width="240" height="160" viewBox="0 0 240 160" fill="none" xmlns="http://www.w3.org/2000/svg">
<path d="M152.002 117.833L151.918 119.081L152.002 117.833ZM232.095 87.6357C232.781 87.5557 233.402 88.0467 233.482 88.7324L234.785 99.9066C234.865 100.592 234.374 101.213 233.689 101.293C233.003 101.373 232.382 100.882 232.302 100.196L231.143 90.2637L221.211 91.4226C220.525 91.5027 219.904 91.0116 219.824 90.3259C219.744 89.6402 220.235 89.0195 220.921 88.9395L232.095 87.6357ZM99.7182 97.4944C100.645 96.6552 100.644 96.6548 100.644 96.6545C100.644 96.6545 100.644 96.6542 100.644 96.6542C100.644 96.6541 100.644 96.6543 100.644 96.6547C100.645 96.6556 100.647 96.6576 100.65 96.6607C100.655 96.6668 100.665 96.6771 100.678 96.6915C100.705 96.7204 100.748 96.7657 100.807 96.8265C100.925 96.9479 101.106 97.1311 101.352 97.3678C101.844 97.8412 102.595 98.5288 103.611 99.3657C105.643 101.04 108.736 103.31 112.946 105.661C121.361 110.359 134.254 115.384 152.086 116.586L151.918 119.081C133.686 117.852 120.437 112.707 111.727 107.844C107.374 105.413 104.158 103.055 102.021 101.295C100.953 100.415 100.155 99.6849 99.619 99.1695C99.3511 98.9118 99.1488 98.7078 99.0112 98.5657C98.9424 98.4947 98.8898 98.4392 98.8533 98.4001C98.835 98.3806 98.8207 98.3652 98.8105 98.3541C98.8054 98.3485 98.8012 98.344 98.7981 98.3406C98.7965 98.3389 98.7952 98.3374 98.7941 98.3363C98.7936 98.3357 98.793 98.335 98.7927 98.3347C98.7922 98.3341 98.7917 98.3336 99.7182 97.4944ZM152.086 116.586C179.022 118.402 198.837 111.239 211.905 103.65C218.443 99.8533 223.298 95.9464 226.512 92.9968C228.118 91.5222 229.314 90.2876 230.104 89.4269C230.499 88.9966 230.792 88.6598 230.984 88.4333C231.081 88.3201 231.152 88.2345 231.197 88.1785C231.22 88.1505 231.237 88.13 231.247 88.1171C231.253 88.1107 231.256 88.1062 231.258 88.1036C231.259 88.1023 231.26 88.1015 231.26 88.1012C231.26 88.1011 231.26 88.1012 231.26 88.1011C231.26 88.1014 231.26 88.1018 232.24 88.8773C233.22 89.6528 233.22 89.6534 233.219 89.6542C233.219 89.6546 233.218 89.6555 233.218 89.6564C233.216 89.658 233.214 89.6602 233.212 89.6629C233.208 89.6682 233.202 89.6755 233.195 89.6848C233.18 89.7032 233.159 89.7294 233.131 89.763C233.076 89.8303 232.995 89.9274 232.889 90.0523C232.677 90.3019 232.363 90.6625 231.946 91.1171C231.112 92.0263 229.866 93.3119 228.202 94.8386C224.876 97.8916 219.877 101.912 213.16 105.812C199.717 113.619 179.412 120.934 151.918 119.081L152.086 116.586Z" fill="#FAF5ED"/>
<g filter="url(#filter0_f)">
<circle cx="151.924" cy="29" r="10" fill="#FAF5ED"/>
</g>
<defs>
<filter id="filter0_f" x="126.924" y="4" width="50" height="50" filterUnits="userSpaceOnUse" color-interpolation-filters="sRGB">
<feFlood flood-opacity="0" result="BackgroundImageFix"/>
<feBlend mode="normal" in="SourceGraphic" in2="BackgroundImageFix" result="shape"/>
<feGaussianBlur stdDeviation="7.5" result="effect1_foregroundBlur"/>
</filter>
</defs>
</svg>
