<svg width="207" height="204" viewBox="0 0 207 204" fill="none" xmlns="http://www.w3.org/2000/svg">
<path d="M94.3901 118.296C83.3429 119.232 68.8155 127.993 65.7028 131.739C57.8732 141.16 53.8969 164.692 57.4888 181.278C69.8643 195.739 147.617 195.851 163.807 183.785C168.8 177.784 169.73 144.789 159.987 130.998C154.698 123.51 144.484 121.191 129.499 119.667C124.908 119.201 96.9155 118.082 94.3901 118.296Z" stroke="#FAF5ED" stroke-width="2"/>
<path d="M128.131 119.739C127.678 115.943 127.485 107.639 130.34 104.783M130.34 104.783C133.909 101.215 138.838 100.534 140.877 87.9583C141.814 82.1801 141.444 71.6433 140.877 67.3946C139.857 59.747 139.178 42.7524 120.653 42.0726C102.129 41.3928 92.7817 45.4715 91.4221 54.9886C90.0625 64.5057 87.6833 76.9117 90.0625 82.8599C92.4418 88.8081 97.7102 104.783 108.417 104.783C119.124 104.783 126.17 108.522 130.34 104.783ZM93.1216 97.8153C94.0847 99.6847 96.2487 104.443 97.2004 108.522C98.1521 112.601 97.3962 116.527 96.9997 118" stroke="#FAF5ED" stroke-width="2"/>
<path d="M92.1014 98.3232C93.5969 98.731 93.9708 94.5277 93.9708 92.375C92.6679 89.3159 89.926 82.654 89.3822 80.4786C88.7024 77.7594 87.1729 81.4983 87.3428 82.8579C87.5128 84.2175 90.2319 97.8133 92.1014 98.3232Z" stroke="#FAF5ED" stroke-width="2"/>
<g filter="url(#filter0_f)">
<circle cx="93.5" cy="93.5" r="37.5" fill="#FAF5ED" fill-opacity="0.96"/>
</g>
<defs>
<filter id="filter0_f" x="0" y="0" width="187" height="187" filterUnits="userSpaceOnUse" color-interpolation-filters="sRGB">
<feFlood flood-opacity="0" result="BackgroundImageFix"/>
<feBlend mode="normal" in="SourceGraphic" in2="BackgroundImageFix" result="shape"/>
<feGaussianBlur stdDeviation="28" result="effect1_foregroundBlur"/>
</filter>
</defs>
</svg>
