<svg width="195" height="196" viewBox="0 0 195 196" fill="none" xmlns="http://www.w3.org/2000/svg">
<path d="M139.843 120.416L77.7111 138.496C-5.67663 139.939 29.6477 81.2857 52.4666 74.7424C95.8555 62.3006 101.816 52.263 106.807 54.7271C110.8 56.6984 106.055 62.5387 103.016 65.8356C101.197 67.8101 87.5918 77.7072 76.4268 77.6508C79.3226 79.5345 124.699 67.6994 141.337 61.0517C146.886 61.8154 148.715 65.5406 144.66 69.1817L94.8245 90.6831L156.126 73.713C160.64 73.9659 163.937 77.0044 159.322 81.7806L100.27 104.549L154.618 91.3097C161.086 92.2454 160.69 95.9062 157.838 98.825L100.301 121.886L136.638 113.19C141.561 113.755 143.092 116.942 139.843 120.416Z" fill="#0A0A0A"/>
<path d="M76.4268 77.6508C79.3226 79.5345 124.699 67.6994 141.337 61.0517C146.886 61.8154 148.715 65.5406 144.66 69.1817L94.8245 90.6831L156.126 73.713C160.64 73.9659 163.937 77.0044 159.322 81.7806L100.27 104.549L154.618 91.3097C161.086 92.2454 160.69 95.9062 157.838 98.825L100.301 121.886L136.638 113.19C141.561 113.755 143.092 116.942 139.843 120.416L77.7111 138.496C-5.67663 139.939 29.6477 81.2857 52.4666 74.7424C95.8555 62.3006 101.816 52.263 106.807 54.7271C110.8 56.6984 106.055 62.5387 103.016 65.8356C101.197 67.8101 87.5918 77.7072 76.4268 77.6508ZM76.4268 77.6508C74.3461 77.6118 77.2941 77.6087 76.4268 77.6508Z" stroke="#FAF5ED" stroke-width="2"/>
<path d="M158.449 116.871L118.541 167.808C72.5074 216.448 37.0073 157.448 60.8391 130.763C90.906 97.0977 87.7993 83.7122 93.2906 82.8008C97.6837 82.0716 97.2377 89.5837 96.6939 94.0341C96.3683 96.6994 91.0946 112.675 81.9945 119.144C85.4454 118.984 115.39 82.8955 125.023 67.7885C129.975 65.1711 133.634 67.129 132.466 72.452L104.54 118.993L144.422 69.4414C148.235 67.0132 152.685 67.5569 151.724 74.1284L117.053 127.076L153.464 84.6119C159.263 81.5976 161.078 84.8018 160.465 88.8362L127.195 141.137L151.63 112.873C155.958 110.459 159.061 112.153 158.449 116.871Z" fill="#0A0A0A"/>
<path d="M81.9945 119.144C85.4454 118.984 115.39 82.8955 125.023 67.7885C129.975 65.1711 133.634 67.129 132.466 72.452L104.54 118.993L144.422 69.4414C148.235 67.0132 152.685 67.5569 151.724 74.1284L117.053 127.076L153.464 84.6119C159.263 81.5976 161.078 84.8018 160.465 88.8362L127.195 141.137L151.63 112.873C155.958 110.459 159.061 112.153 158.449 116.871L118.541 167.808C72.5074 216.448 37.0073 157.448 60.8391 130.763C90.906 97.0977 87.7993 83.7122 93.2906 82.8008C97.6837 82.0716 97.2377 89.5837 96.6939 94.0341C96.3683 96.6994 91.0946 112.675 81.9945 119.144ZM81.9945 119.144C80.2821 120.327 82.6743 118.604 81.9945 119.144Z" stroke="#FAF5ED" stroke-width="2"/>
<path d="M128.801 74.8755L125.351 72.6045C125.858 71.9174 127.278 70.4117 128.898 69.8849C130.923 69.2265 128.631 75.4528 128.801 74.8755Z" fill="#FAF5ED" stroke="#FAF5ED" stroke-width="2"/>
<path d="M147.801 76.8755L144.351 74.6045C144.858 73.9174 146.278 72.4117 147.898 71.8849C149.923 71.2265 147.631 77.4528 147.801 76.8755Z" fill="#FAF5ED" stroke="#FAF5ED" stroke-width="2"/>
<path d="M156.801 91.8755L153.351 89.6045C153.858 88.9174 155.278 87.4117 156.898 86.8849C158.923 86.2265 156.631 92.4528 156.801 91.8755Z" fill="#FAF5ED" stroke="#FAF5ED" stroke-width="2"/>
<path d="M154.801 119.875L151.351 117.604C151.858 116.917 153.278 115.412 154.898 114.885C156.923 114.227 154.631 120.453 154.801 119.875Z" fill="#FAF5ED" stroke="#FAF5ED" stroke-width="2"/>
<path d="M92.8636 90.2768L89.6422 88.8934C89.8712 87.9492 90.6117 85.7757 91.7421 84.6349C93.1551 83.2088 92.8701 90.9833 92.8636 90.2768Z" fill="#FAF5ED" stroke="#FAF5ED" stroke-width="2"/>
<path d="M102.326 59.4076L101.019 56.1543C101.848 55.6468 103.906 54.6292 105.512 54.6184C107.52 54.6048 101.832 59.9129 102.326 59.4076Z" fill="#FAF5ED" stroke="#FAF5ED" stroke-width="2"/>
<g filter="url(#filter0_f)">
<circle cx="125" cy="57" r="15" fill="#FAF5ED"/>
</g>
<g filter="url(#filter1_f)">
<circle cx="162.5" cy="75.5" r="7.5" fill="#FAF5ED"/>
</g>
<g filter="url(#filter2_f)">
<circle cx="115" cy="95" r="15" fill="#FAF5ED"/>
</g>
<defs>
<filter id="filter0_f" x="90" y="22" width="70" height="70" filterUnits="userSpaceOnUse" color-interpolation-filters="sRGB">
<feFlood flood-opacity="0" result="BackgroundImageFix"/>
<feBlend mode="normal" in="SourceGraphic" in2="BackgroundImageFix" result="shape"/>
<feGaussianBlur stdDeviation="10" result="effect1_foregroundBlur"/>
</filter>
<filter id="filter1_f" x="130" y="43" width="65" height="65" filterUnits="userSpaceOnUse" color-interpolation-filters="sRGB">
<feFlood flood-opacity="0" result="BackgroundImageFix"/>
<feBlend mode="normal" in="SourceGraphic" in2="BackgroundImageFix" result="shape"/>
<feGaussianBlur stdDeviation="12.5" result="effect1_foregroundBlur"/>
</filter>
<filter id="filter2_f" x="80" y="60" width="70" height="70" filterUnits="userSpaceOnUse" color-interpolation-filters="sRGB">
<feFlood flood-opacity="0" result="BackgroundImageFix"/>
<feBlend mode="normal" in="SourceGraphic" in2="BackgroundImageFix" result="shape"/>
<feGaussianBlur stdDeviation="10" result="effect1_foregroundBlur"/>
</filter>
</defs>
</svg>
