<svg width="139" height="156" viewBox="0 0 139 156" fill="none" xmlns="http://www.w3.org/2000/svg">
<path d="M54.0773 113.833L53.9932 115.081L54.0773 113.833ZM134.171 83.6357C134.856 83.5557 135.477 84.0467 135.557 84.7324L136.861 95.9066C136.941 96.5923 136.45 97.2131 135.764 97.2931C135.079 97.3731 134.458 96.8821 134.378 96.1964L133.219 86.2637L123.286 87.4226C122.601 87.5026 121.98 87.0116 121.9 86.3259C121.82 85.6402 122.311 85.0195 122.997 84.9395L134.171 83.6357ZM1.79371 93.4944C2.72016 92.6552 2.7198 92.6548 2.7195 92.6545C2.71948 92.6545 2.71924 92.6542 2.7192 92.6542C2.71912 92.6541 2.71929 92.6543 2.71971 92.6547C2.72054 92.6556 2.72236 92.6576 2.72517 92.6607C2.73078 92.6668 2.74034 92.6771 2.75385 92.6915C2.78089 92.7204 2.82376 92.7657 2.88258 92.8265C3.00023 92.9479 3.18165 93.1311 3.42771 93.3678C3.91986 93.8412 4.67045 94.5288 5.68645 95.3657C7.71849 97.0396 10.8114 99.3104 15.0213 101.661C23.4369 106.359 36.3297 111.384 54.1614 112.586L53.9932 115.081C35.762 113.852 22.513 108.707 13.8026 103.844C9.44937 101.413 6.23321 99.0551 4.09691 97.2953C3.02873 96.4154 2.23034 95.6849 1.69455 95.1695C1.42664 94.9118 1.22435 94.7078 1.08678 94.5657C1.01799 94.4947 0.965383 94.4392 0.928835 94.4001C0.910561 94.3806 0.896302 94.3652 0.886045 94.3541C0.880916 94.3485 0.876788 94.344 0.873658 94.3406C0.872093 94.3389 0.870777 94.3374 0.869711 94.3363C0.869178 94.3357 0.868565 94.335 0.868299 94.3347C0.867749 94.3341 0.867261 94.3336 1.79371 93.4944ZM54.1614 112.586C81.0981 114.402 100.912 107.239 113.98 99.6504C120.519 95.8533 125.374 91.9464 128.587 88.9968C130.194 87.5222 131.39 86.2876 132.179 85.4269C132.574 84.9966 132.868 84.6598 133.06 84.4333C133.156 84.3201 133.227 84.2345 133.273 84.1785C133.296 84.1505 133.313 84.13 133.323 84.1171C133.328 84.1107 133.332 84.1062 133.334 84.1036C133.335 84.1023 133.335 84.1015 133.336 84.1012C133.336 84.1011 133.336 84.1012 133.336 84.1011C133.336 84.1014 133.335 84.1018 134.316 84.8773C135.296 85.6528 135.295 85.6534 135.295 85.6542C135.294 85.6546 135.294 85.6555 135.293 85.6564C135.292 85.658 135.29 85.6602 135.288 85.6629C135.284 85.6682 135.278 85.6755 135.27 85.6848C135.256 85.7032 135.234 85.7294 135.207 85.763C135.152 85.8303 135.071 85.9274 134.965 86.0523C134.753 86.3019 134.439 86.6625 134.021 87.1171C133.187 88.0263 131.941 89.3119 130.278 90.8386C126.952 93.8916 121.953 97.9117 115.236 101.812C101.792 109.619 81.4872 116.934 53.9932 115.081L54.1614 112.586Z" fill="#FAF5ED"/>
<g filter="url(#filter0_f)">
<circle cx="54" cy="25" r="10" fill="#FAF5ED"/>
</g>
<defs>
<filter id="filter0_f" x="29" y="0" width="50" height="50" filterUnits="userSpaceOnUse" color-interpolation-filters="sRGB">
<feFlood flood-opacity="0" result="BackgroundImageFix"/>
<feBlend mode="normal" in="SourceGraphic" in2="BackgroundImageFix" result="shape"/>
<feGaussianBlur stdDeviation="7.5" result="effect1_foregroundBlur"/>
</filter>
</defs>
</svg>
