<svg width="699" height="699" viewBox="0 0 699 699" fill="none" xmlns="http://www.w3.org/2000/svg">
<path d="M553.375 87.375H145.625C113.442 87.375 87.375 113.442 87.375 145.625V553.375C87.375 585.558 113.442 611.625 145.625 611.625H367.587V408.886H299.347V329.52H367.587V271.125C367.587 203.438 408.973 166.537 469.378 166.537C489.737 166.478 510.066 167.527 530.308 169.595V240.369H488.718C455.806 240.369 449.399 255.921 449.399 278.872V329.404H528.036L517.813 408.769H448.933V611.625H553.375C585.558 611.625 611.625 585.558 611.625 553.375V145.625C611.625 113.442 585.558 87.375 553.375 87.375Z" fill="#F2A655"/>
</svg>
