<svg width="699" height="699" viewBox="0 0 699 699" fill="none" xmlns="http://www.w3.org/2000/svg">
<path d="M233 87.375C152.586 87.375 87.375 152.586 87.375 233V466C87.375 546.414 152.586 611.625 233 611.625H466C546.414 611.625 611.625 546.414 611.625 466V233C611.625 152.586 546.414 87.375 466 87.375H233ZM524.25 145.625C540.327 145.625 553.375 158.673 553.375 174.75C553.375 190.827 540.327 203.875 524.25 203.875C508.173 203.875 495.125 190.827 495.125 174.75C495.125 158.673 508.173 145.625 524.25 145.625ZM349.5 203.875C429.914 203.875 495.125 269.086 495.125 349.5C495.125 429.914 429.914 495.125 349.5 495.125C269.086 495.125 203.875 429.914 203.875 349.5C203.875 269.086 269.086 203.875 349.5 203.875ZM349.5 262.125C326.327 262.125 304.103 271.331 287.717 287.717C271.331 304.103 262.125 326.327 262.125 349.5C262.125 372.673 271.331 394.897 287.717 411.283C304.103 427.669 326.327 436.875 349.5 436.875C372.673 436.875 394.897 427.669 411.283 411.283C427.669 394.897 436.875 372.673 436.875 349.5C436.875 326.327 427.669 304.103 411.283 287.717C394.897 271.331 372.673 262.125 349.5 262.125Z" fill="#F2A655"/>
</svg>
